<?xml version="1.0" standalone="no"?>
<!DOCTYPE svg PUBLIC "-//W3C//DTD SVG 20010904//EN"
 "http://www.w3.org/TR/2001/REC-SVG-20010904/DTD/svg10.dtd">
<svg version="1.0" xmlns="http://www.w3.org/2000/svg"
 width="177.000000pt" height="177.000000pt" viewBox="0 0 177.000000 177.000000"
 preserveAspectRatio="xMidYMid meet">
<metadata>
Created by potrace 1.11, written by Peter Selinger 2001-2013
</metadata>
<g transform="translate(0.000000,177.000000) scale(0.100000,-0.100000)"
fill="#000000" stroke="none">
<path d="M774 1714 c-15 -22 -15 -26 3 -56 25 -44 43 -47 43 -8 0 18 4 29 10
25 12 -7 12 11 1 39 -11 28 -39 28 -57 0z"/>
<path d="M853 1733 c-6 -2 -8 -15 -5 -29 3 -16 10 -23 18 -20 7 3 16 1 19 -3
2 -5 19 -6 37 -2 22 5 34 14 38 31 7 24 5 25 -45 25 -29 1 -57 -1 -62 -2z"/>
<path d="M976 1673 c4 -21 8 -39 9 -41 2 -2 13 11 25 27 24 35 20 51 -16 51
-23 0 -24 -2 -18 -37z"/>
<path d="M1017 1648 l-28 -40 36 29 c35 28 41 38 28 46 -5 3 -21 -13 -36 -35z"/>
<path d="M728 1666 c-9 -7 -13 -17 -10 -23 7 -11 62 -36 67 -31 2 2 -7 17 -19
34 -18 27 -24 30 -38 20z"/>
<path d="M841 1652 c-12 -4 -15 -35 -4 -45 3 -4 12 -2 20 4 9 9 17 8 27 0 10
-9 16 -9 21 -1 5 8 10 8 20 0 10 -8 17 -5 29 12 9 12 16 25 16 28 0 6 -113 7
-129 2z"/>
<path d="M1023 1618 c-28 -31 -40 -70 -19 -62 9 3 16 9 16 13 0 3 11 18 24 33
22 23 24 38 6 38 -4 0 -16 -10 -27 -22z"/>
<path d="M710 1601 c0 -5 7 -11 15 -15 8 -3 15 -12 15 -19 0 -10 8 -13 25 -9
29 5 31 14 9 36 -16 17 -64 22 -64 7z"/>
<path d="M804 1588 c-3 -4 3 -33 13 -64 30 -97 90 -98 138 -3 27 53 27 61 -3
64 -9 0 -23 4 -29 8 -6 4 -14 3 -18 -3 -4 -6 -12 -7 -18 -3 -17 10 -77 11 -83
1z"/>
<path d="M180 1585 c0 -6 155 -165 345 -355 190 -190 345 -347 345 -350 0 -3
-47 -53 -105 -110 -95 -94 -105 -102 -99 -74 4 21 2 34 -7 39 -9 6 -11 4 -6
-7 8 -21 -18 -56 -46 -61 -14 -3 -10 -5 13 -6 35 -1 34 -2 -190 -228 -124
-126 -73 -77 113 107 l337 335 106 -106 c82 -82 101 -106 81 -102 -13 3 -28 0
-31 -6 -5 -7 2 -11 16 -11 29 0 48 -17 49 -45 1 -14 3 -12 8 8 6 27 15 18 241
-207 129 -129 236 -233 239 -230 3 3 -153 163 -347 357 l-352 352 110 110 c99
98 110 107 104 79 -3 -19 -2 -34 5 -38 7 -5 11 2 11 17 0 26 13 42 45 51 11 3
2 3 -20 1 -39 -4 -37 -2 200 238 132 133 82 86 -110 -105 l-350 -348 -352 352
c-194 194 -353 348 -353 343z"/>
<path d="M328 1505 c12 -24 67 -75 102 -97 14 -8 54 -17 90 -21 l65 -6 -65 23
c-66 22 -136 61 -179 100 -23 20 -23 20 -13 1z"/>
<path d="M1385 1475 c-36 -27 -90 -55 -135 -70 l-75 -24 65 6 c70 6 88 12 137
49 26 20 82 85 71 84 -2 -1 -30 -21 -63 -45z"/>
<path d="M810 1457 c0 -26 30 -67 50 -67 6 0 10 -71 10 -192 0 -187 0 -191
-19 -174 -11 10 -27 49 -37 88 -16 66 -41 108 -64 108 -12 0 -12 -24 0 -60 l8
-25 1 24 c1 19 4 21 15 12 7 -6 16 -39 18 -75 7 -81 34 -138 71 -151 59 -20
104 41 106 142 2 74 39 133 42 66 1 -22 3 -20 9 12 11 53 -4 68 -34 34 -13
-15 -28 -52 -35 -86 -11 -58 -34 -103 -52 -103 -5 0 -9 77 -9 188 l0 189 25
11 c26 12 53 57 42 69 -4 3 -15 -1 -25 -10 -26 -24 -77 -21 -102 5 l-20 22 0
-27z"/>
<path d="M294 1386 c29 -40 58 -97 72 -139 l23 -72 -5 55 c-3 30 -7 64 -9 76
-6 30 -58 98 -96 125 -32 23 -32 21 15 -45z"/>
<path d="M1469 1413 c-53 -48 -75 -94 -82 -173 l-5 -65 22 70 c23 72 39 103
89 168 36 47 28 47 -24 0z"/>
<path d="M710 1262 c9 -19 7 -26 -12 -45 -13 -12 -19 -19 -14 -14 6 4 18 7 28
7 22 0 24 29 2 56 -14 18 -15 18 -4 -4z"/>
<path d="M1036 1245 c-18 -27 -17 -28 34 -39 24 -5 24 -4 6 9 -11 8 -24 15
-28 15 -5 0 -4 9 2 20 15 28 5 25 -14 -5z"/>
<path d="M661 1158 c-2 -50 52 -77 80 -40 12 15 12 16 -1 5 -22 -17 -62 4 -71
37 l-7 25 -1 -27z"/>
<path d="M1084 1142 c-11 -14 -28 -25 -37 -25 -9 0 -14 -4 -11 -9 16 -25 80
14 72 44 -2 10 -9 7 -24 -10z"/>
<path d="M631 1080 c17 -16 28 -34 24 -40 -3 -5 -1 -10 4 -10 20 0 11 49 -11
64 -38 27 -48 18 -17 -14z"/>
<path d="M1198 1088 c7 -7 12 -20 12 -30 0 -11 7 -18 20 -18 19 0 18 2 -7 30
-14 17 -29 30 -32 30 -3 0 0 -5 7 -12z"/>
<path d="M548 1065 c-10 -23 -12 -23 -39 -9 -41 21 -36 10 6 -15 37 -22 38
-21 48 27 7 29 -1 28 -15 -3z"/>
<path d="M134 1059 c-8 -14 33 -54 63 -64 18 -5 22 -3 17 9 -3 9 -9 16 -13 16
-3 0 -18 11 -33 25 -17 16 -29 21 -34 14z"/>
<path d="M87 1053 c-3 -5 13 -21 35 -36 l40 -28 -29 36 c-28 35 -38 41 -46 28z"/>
<path d="M1590 1045 c0 -8 -8 -15 -19 -15 -14 0 -17 -6 -13 -25 5 -29 14 -31
36 -9 18 17 22 64 6 64 -5 0 -10 -7 -10 -15z"/>
<path d="M1622 1019 l-9 -37 33 20 c28 16 31 22 22 37 -17 28 -36 21 -46 -20z"/>
<path d="M67 1023 c-4 -3 -7 -16 -7 -28 0 -20 5 -22 46 -21 l45 1 -32 28 c-35
28 -42 31 -52 20z"/>
<path d="M555 1019 c-11 -17 25 -48 69 -59 86 -22 118 -34 127 -52 9 -17 0
-18 -179 -18 l-189 0 -11 25 c-11 24 -59 52 -70 40 -3 -3 2 -13 11 -23 23 -25
21 -78 -3 -102 l-20 -20 25 0 c25 0 65 31 65 50 0 6 71 10 192 10 191 0 192 0
173 -20 -11 -10 -49 -27 -85 -36 -67 -17 -114 -48 -106 -71 3 -8 -2 -13 -12
-13 -10 0 -27 -7 -38 -16 -18 -14 -18 -15 4 -4 19 9 26 7 45 -12 12 -13 19
-19 15 -14 -17 22 -7 47 25 61 21 9 26 14 13 15 -15 0 -16 3 -6 15 7 9 29 15
52 15 100 0 178 41 178 94 0 46 -74 86 -157 86 -51 0 -87 16 -79 35 2 7 -2 16
-10 19 -21 8 -22 8 -29 -5z"/>
<path d="M1165 1020 c-18 -8 -18 -9 5 -10 24 -1 24 -1 6 -15 -11 -8 -38 -15
-61 -15 -131 0 -218 -78 -152 -137 30 -27 50 -34 131 -43 40 -5 75 -15 84 -24
15 -15 13 -16 -18 -17 l-35 -1 40 -8 c22 -5 44 -4 49 1 15 14 -24 48 -68 59
-97 24 -116 32 -126 50 -10 20 -6 20 178 20 l189 0 11 -25 c12 -25 57 -53 68
-42 3 3 -1 16 -10 29 -22 31 -20 67 6 95 l21 23 -26 0 c-25 0 -48 -16 -65 -46
-7 -12 -39 -14 -198 -12 l-189 3 34 22 c18 11 50 24 70 28 57 9 89 25 106 51
15 23 14 24 -7 23 -13 0 -32 -4 -43 -9z"/>
<path d="M1653 989 c-41 -26 -42 -39 -2 -39 17 0 28 -4 24 -10 -8 -13 6 -13
39 -1 28 11 29 37 1 57 -24 18 -24 18 -62 -7z"/>
<path d="M188 968 c0 -7 -2 -17 -2 -23 -1 -5 -5 -15 -9 -22 -4 -6 -3 -14 3
-18 6 -4 7 -12 3 -18 -10 -17 -11 -77 -1 -83 4 -3 33 3 64 13 97 30 98 87 4
136 -60 31 -60 31 -62 15z"/>
<path d="M116 916 c1 -28 2 -59 3 -68 1 -10 9 -18 19 -18 26 0 34 11 21 27 -9
9 -8 17 0 27 9 10 9 16 1 21 -8 5 -8 11 0 20 11 13 0 27 -30 37 -12 4 -15 -4
-14 -46z"/>
<path d="M1522 953 c-54 -19 -79 -54 -64 -88 15 -33 111 -82 123 -63 5 7 7 18
4 25 -2 7 -1 14 3 17 4 2 7 30 7 62 0 67 -6 71 -73 47z"/>
<path d="M39 948 c-5 -16 -5 -89 0 -97 10 -15 53 -1 47 15 -3 8 -1 14 4 14 6
0 8 10 6 23 -3 12 -5 28 -5 35 -1 9 -49 19 -52 10z"/>
<path d="M1613 918 c4 -12 2 -27 -4 -34 -7 -8 -6 -14 1 -19 8 -5 8 -10 0 -20
-8 -10 -5 -17 12 -29 12 -9 25 -16 28 -16 4 0 5 95 1 130 0 6 -11 10 -22 10
-17 0 -20 -4 -16 -22z"/>
<path d="M1702 923 c-15 -3 -22 -10 -18 -18 3 -8 1 -17 -4 -20 -6 -3 -5 -17 1
-33 6 -15 10 -29 9 -32 0 -3 8 -6 20 -8 11 -2 20 0 21 5 4 42 4 113 0 112 -3
-1 -16 -4 -29 -6z"/>
<path d="M60 831 c-28 -8 -30 -38 -2 -58 22 -18 33 -16 67 12 l30 24 -27 1
c-18 0 -28 5 -28 15 0 16 -2 17 -40 6z"/>
<path d="M848 811 c-28 -23 -48 -80 -48 -140 0 -49 -16 -85 -35 -77 -15 5 -28
-31 -13 -40 16 -10 48 27 59 70 21 79 40 124 54 130 13 5 15 -22 15 -183 l0
-188 -25 -11 c-23 -11 -52 -59 -41 -69 3 -3 15 2 28 11 32 22 74 20 98 -6 l20
-22 0 27 c0 26 -30 67 -50 67 -6 0 -10 71 -10 192 0 191 0 192 19 173 11 -11
29 -53 40 -94 13 -51 27 -80 43 -92 29 -22 39 -8 24 33 -10 27 -11 28 -14 8
-3 -21 -4 -21 -17 -3 -8 10 -15 35 -15 56 0 96 -42 177 -89 177 -10 0 -29 -9
-43 -19z"/>
<path d="M1655 791 l-30 -6 32 -23 c42 -29 53 -28 53 8 0 31 -3 32 -55 21z"/>
<path d="M135 773 c-11 -8 -26 -18 -34 -23 -12 -7 -12 -10 2 -24 23 -24 30
-20 45 21 14 43 13 46 -13 26z"/>
<path d="M176 774 c-17 -16 -22 -64 -7 -64 5 0 11 7 15 15 3 8 11 15 18 15 7
0 13 11 13 25 0 28 -16 32 -39 9z"/>
<path d="M1560 764 c0 -8 3 -14 8 -14 4 0 19 -11 34 -25 34 -31 50 -14 18 20
-27 28 -60 39 -60 19z"/>
<path d="M1637 745 c28 -35 38 -41 46 -27 3 4 -13 20 -35 35 l-40 28 29 -36z"/>
<path d="M1216 737 c-3 -6 -7 -22 -9 -35 -5 -19 -3 -21 9 -11 8 6 14 18 14 25
0 12 5 12 30 -1 42 -21 38 -12 -5 14 -26 15 -37 17 -39 8z"/>
<path d="M1108 734 c-23 -22 10 -74 47 -74 15 0 13 4 -8 20 -14 11 -27 30 -29
41 -2 12 -6 17 -10 13z"/>
<path d="M676 648 c-24 -34 -19 -55 5 -24 11 14 29 26 40 26 11 0 17 5 14 10
-11 17 -43 11 -59 -12z"/>
<path d="M1386 540 c3 -30 7 -64 9 -76 6 -30 58 -98 96 -125 32 -23 32 -21
-15 44 -28 40 -57 97 -71 140 l-24 72 5 -55z"/>
<path d="M370 533 c-17 -63 -41 -109 -84 -166 -20 -26 -32 -47 -27 -47 11 0
95 90 108 116 10 18 26 144 19 144 -2 0 -9 -21 -16 -47z"/>
<path d="M1085 570 c-3 -5 -15 -10 -26 -10 -23 0 -25 -28 -3 -56 14 -18 15
-18 4 4 -9 19 -7 26 17 47 15 13 25 25 21 25 -4 0 -10 -4 -13 -10z"/>
<path d="M691 555 c18 -17 47 -23 49 -10 0 6 -13 13 -31 16 -26 6 -29 5 -18
-6z"/>
<path d="M1160 396 c0 -3 33 -15 73 -27 72 -21 152 -63 195 -102 41 -38 23 -2
-20 40 -55 52 -89 69 -158 76 -30 3 -63 8 -72 12 -10 4 -18 5 -18 1z"/>
<path d="M509 381 c-64 -7 -122 -42 -166 -100 -22 -29 -23 -33 -6 -21 11 8 41
29 65 47 25 17 78 43 119 56 78 27 77 28 -12 18z"/>
<path d="M857 308 c-18 -14 -69 -109 -62 -117 3 -2 15 -5 28 -7 12 -1 22 -3
22 -4 0 -6 117 -5 121 2 3 4 -3 33 -13 64 -12 41 -24 59 -41 65 -30 12 -35 11
-55 -3z"/>
<path d="M1003 212 c-27 -4 -29 -15 -7 -36 17 -18 64 -22 64 -6 0 6 -5 10 -10
10 -6 0 -14 8 -18 18 -4 11 -15 16 -29 14z"/>
<path d="M740 188 c-8 -13 -13 -26 -12 -30 1 -5 -6 -8 -15 -8 -13 0 -14 -3 -5
-12 9 -9 17 -7 36 11 27 26 40 61 22 61 -6 0 -18 -10 -26 -22z"/>
<path d="M823 158 c-28 -37 -22 -43 38 -42 81 2 79 2 79 25 0 17 -4 20 -22 16
-12 -4 -27 -2 -34 4 -8 7 -14 6 -19 -1 -5 -8 -11 -8 -20 0 -9 7 -15 7 -22 -2z"/>
<path d="M759 143 c-13 -16 -12 -17 4 -4 16 13 21 21 13 21 -2 0 -10 -8 -17
-17z"/>
<path d="M990 153 c0 -3 10 -22 22 -42 17 -27 24 -32 26 -18 2 9 7 17 11 17 4
0 8 6 8 14 0 7 -15 18 -34 24 -18 6 -33 8 -33 5z"/>
<path d="M766 116 c-33 -44 -33 -56 3 -56 27 0 28 2 27 45 0 25 -2 45 -2 45
-1 0 -13 -15 -28 -34z"/>
<path d="M960 119 c0 -24 -4 -30 -15 -25 -12 4 -14 0 -9 -22 4 -15 8 -30 10
-34 8 -13 46 6 56 28 8 18 6 28 -11 53 -12 17 -24 31 -27 31 -2 0 -4 -14 -4
-31z"/>
<path d="M720 110 c-10 -6 -12 -12 -5 -19 7 -7 14 -4 23 9 13 21 6 25 -18 10z"/>
<path d="M847 93 c-24 -4 -28 -9 -25 -31 3 -24 7 -26 56 -27 50 -1 53 0 48 19
-3 12 -6 25 -6 30 0 4 -7 6 -15 2 -8 -3 -15 -1 -15 4 0 6 -3 9 -7 9 -5 -1 -21
-4 -36 -6z"/>
</g>
</svg>
